<svg width="1011" height="101" viewBox="0 0 1011 101" fill="none" xmlns="http://www.w3.org/2000/svg">
<path fill-rule="evenodd" clip-rule="evenodd" d="M0 84.1567V85.4117H66.3771C73.3427 85.4117 78.4533 83.8391 81.7092 80.6939L0 84.1567ZM0 68.5831L86.6242 65.9915C86.6293 65.7164 86.6319 65.4382 86.6319 65.1569V52.2232C86.6319 45.1462 85.005 40.0215 81.7512 36.8491C78.4974 33.5953 73.3727 31.9684 66.3771 31.9684H31.7243V23.6712H79.3109V0H0V68.5831ZM95.2064 80.1219V85.4117H172.077V76.8641L95.2064 80.1219ZM172.077 63.4351L95.2064 65.7348V0H170.857V24.4034H126.931V32.0904H165.976V52.3452H126.931V61.0084H172.077V63.4351ZM180.284 76.5163C181.026 78.1311 181.968 79.51 183.111 80.6531C186.365 83.8255 191.489 85.4117 198.485 85.4117H247.048C254.043 85.4117 259.168 83.8255 262.422 80.6531C264.348 78.7265 265.705 76.1297 266.49 72.8628L180.284 76.5163ZM312.43 70.9159V85.4117H378.807C385.802 85.4117 390.927 83.8255 394.181 80.6531C397.105 77.7285 398.715 73.2597 399.011 67.2466L312.43 70.9159ZM398.978 56.6469C398.382 48.346 394.586 43.4143 387.592 41.8517C393.611 39.5741 396.621 34.0833 396.621 25.3795V20.2548C396.621 13.1778 394.994 8.0531 391.74 4.88067C388.487 1.62689 383.362 0 376.366 0H312.43V59.2361L344.154 58.287V51.247H363.433C364.978 51.247 365.995 51.5317 366.483 52.1011C367.052 52.5892 367.337 53.606 367.337 55.1516V57.5935L398.978 56.6469ZM407.192 66.8999C408.05 72.157 409.947 76.2533 412.883 79.1889C417.113 83.3374 423.579 85.4117 432.283 85.4117H472.549C481.253 85.4117 487.679 83.3374 491.827 79.1889C495.516 75.5714 497.596 70.1913 498.068 63.0485L407.192 66.8999ZM498.172 53.6793V25.6235C498.172 16.8383 496.057 10.3714 491.827 6.22285C487.679 2.07428 481.253 0 472.549 0H432.283C423.579 0 417.113 2.07428 412.883 6.22285C408.734 10.3714 406.66 16.8383 406.66 25.6235V56.417L438.642 55.4602C438.47 54.7629 438.384 53.9279 438.384 52.9553V32.4565C438.384 30.3415 438.791 28.8773 439.604 28.0638C440.418 27.2504 441.882 26.8437 443.997 26.8437H460.835C462.95 26.8437 464.414 27.2504 465.228 28.0638C466.041 28.8773 466.448 30.3415 466.448 32.4565V52.9553C466.448 53.5687 466.414 54.1275 466.345 54.6314L498.172 53.6793ZM503.352 62.8246V100.054H532.636V85.4117H585.104V100.054H614.388V58.568H603.789L503.352 62.8246ZM600.966 50.604V0H521.167L517.628 52.9553C517.625 53.003 517.621 53.0504 517.617 53.0975L549.783 52.1352C549.852 51.4609 549.912 50.7581 549.963 50.0269L551.671 28.0638H569.241V51.5531L600.966 50.604ZM620.45 57.8619V85.4117H682.679C690.732 85.4117 696.589 83.5815 700.249 79.921C703.991 76.2605 705.862 70.363 705.862 62.2285V54.2422L674.138 55.5867V56.3717C674.138 58.1613 673.812 59.3815 673.161 60.0322C672.511 60.683 671.291 61.0084 669.501 61.0084H652.175V56.5175L620.45 57.8619ZM652.175 49.072L620.45 50.0211V0H652.175V21.963H682.679C690.732 21.963 696.589 23.7933 700.249 27.4538C703.991 31.1143 705.862 37.0117 705.862 45.1462V47.4658L674.062 48.4172C673.931 47.3564 673.631 46.5914 673.161 46.1223C672.511 45.4716 671.291 45.1462 669.501 45.1462H652.175V49.072ZM713.671 53.9112V85.4117H745.883V52.5461L713.671 53.9112ZM745.883 46.2685L713.671 47.2322V0H745.883V46.2685ZM792.729 50.5607C792.418 52.3226 792.263 54.2596 792.263 56.3717V85.4117H873.77V61.0084H822.767V59.5442C822.767 58.1613 823.011 57.2258 823.499 56.7378C824.069 56.1684 825.126 55.8023 826.672 55.6396L854.98 52.2232C861.189 51.447 865.899 49.8138 869.109 47.3237L792.729 50.5607ZM873.066 42.4636L794.602 44.811C795.267 43.5426 796.073 42.4342 797.022 41.4857C800.194 38.3133 805.36 36.2796 812.518 35.3849L840.826 31.9684C842.371 31.8057 843.388 31.4803 843.876 30.9923C844.446 30.4228 844.73 29.4467 844.73 28.0638V25.6235C844.73 24.078 844.446 23.0612 843.876 22.5731C843.388 22.0037 842.371 21.719 840.826 21.719H827.16C825.614 21.719 824.557 22.0037 823.987 22.5731C823.499 23.0612 823.255 24.078 823.255 25.6235V29.528H793.971V20.2548C793.971 13.1778 795.598 8.0531 798.852 4.88067C802.106 1.62689 807.231 0 814.226 0H854.98C861.975 0 867.1 1.62689 870.354 4.88067C873.608 8.0531 875.235 13.1778 875.235 20.2548V31.2363C875.235 35.7944 874.512 39.5368 873.066 42.4636ZM927.983 44.8287V59.7882C927.983 68.5734 930.057 75.0403 934.206 79.1889C938.436 83.3374 944.903 85.4117 953.606 85.4117H985.331C994.035 85.4117 1000.46 83.3374 1004.61 79.1889C1008.84 75.0403 1010.95 68.5734 1010.95 59.7882V41.3123L980.45 42.6051V53.9314C980.45 56.0464 980.043 57.5106 979.23 58.324C978.417 59.1374 976.952 59.5442 974.837 59.5442H964.1C961.985 59.5442 960.521 59.1374 959.707 58.324C958.894 57.5106 958.487 56.0464 958.487 53.9314V43.5359L927.983 44.8287ZM958.487 39.908L927.983 40.8206V25.6235C927.983 16.8383 930.057 10.3714 934.206 6.22285C938.436 2.07428 944.903 0 953.606 0H985.331C994.035 0 1000.46 2.07428 1004.61 6.22285C1008.84 10.3714 1010.95 16.8383 1010.95 25.6235V38.3383L980.45 39.2509V31.4803C980.45 29.3654 980.043 27.9012 979.23 27.0877C978.417 26.2743 976.952 25.8675 974.837 25.8675H964.1C961.985 25.8675 960.521 26.2743 959.707 27.0877C958.894 27.9012 958.487 29.3654 958.487 31.4803V39.908ZM267.302 60.5862L234.652 61.563C234.677 61.5413 234.701 61.5191 234.724 61.4964C235.293 60.927 235.578 59.8695 235.578 58.324V55.7616C235.578 54.2161 235.293 53.1993 234.724 52.7112C234.236 52.1418 233.219 51.8571 231.674 51.8571H216.055V32.5785H230.453C231.999 32.5785 233.016 32.3344 233.504 31.8464C234.073 31.277 234.358 30.2195 234.358 28.6739V27.0877C234.358 25.5422 234.073 24.5254 233.504 24.0373C233.016 23.4679 231.999 23.1832 230.453 23.1832H213.859C212.314 23.1832 211.256 23.4679 210.687 24.0373C210.199 24.5254 209.955 25.5422 209.955 27.0877V32.7005H179.45V20.2548C179.45 13.1778 181.077 8.0531 184.331 4.88067C187.585 1.62689 192.71 0 199.705 0H245.827C252.823 0 257.948 1.62689 261.202 4.88067C264.455 8.0531 266.082 13.1778 266.082 20.2548V25.3795C266.082 34.4087 262.91 39.9808 256.565 42.0958C263.723 43.8854 267.302 49.5388 267.302 59.0561V60.5862ZM212.448 62.2273L178.23 63.251V51.7351H208.734V58.324C208.734 59.8695 208.978 60.927 209.466 61.4964C210.012 61.9642 211.006 62.2078 212.448 62.2273ZM51.003 62.2285H31.7243V51.4911H51.003C52.5485 51.4911 53.5653 51.7758 54.0534 52.3452C54.6228 52.8332 54.9075 53.8501 54.9075 55.3956V58.324C54.9075 59.8695 54.6228 60.927 54.0534 61.4964C53.5653 61.9845 52.5485 62.2285 51.003 62.2285ZM344.154 33.1885V23.1832H360.992C362.538 23.1832 363.555 23.4679 364.043 24.0373C364.612 24.5254 364.897 25.5422 364.897 27.0877V29.284C364.897 30.8296 364.612 31.887 364.043 32.4565C363.555 32.9445 362.538 33.1885 360.992 33.1885H344.154ZM884.502 53.6874V85.4117H918.667V53.6874H884.502Z" fill="white"/>
</svg>
