<svg width="328" height="106" viewBox="0 0 328 106" fill="none" xmlns="http://www.w3.org/2000/svg">
<path fill-rule="evenodd" clip-rule="evenodd" d="M-0.00195312 40.106V37.9425L39.5718 36.2196C39.2476 36.854 38.8521 37.4047 38.3852 37.8715C36.8574 39.3612 34.451 40.106 31.1661 40.106H-0.00195312ZM40.6609 31.4115L-0.00195312 32.827V0H37.2393V11.1151H14.8946V15.0111H31.1661C34.451 15.0111 36.8574 15.775 38.3852 17.3029C39.9131 18.7925 40.677 21.1989 40.677 24.522V30.5952C40.677 30.8736 40.6716 31.1457 40.6609 31.4115ZM44.7033 40.106V35.9962L80.7987 34.4247V40.106H44.7033ZM44.7033 31.2708L80.7987 30.0144V28.6471H59.5998V24.5793H77.934V15.0684H59.5998V11.4589H80.2257V0H44.7033V31.2708ZM85.9798 37.8715C85.0885 36.9803 84.4572 35.7836 84.0859 34.2815L125.421 32.4819C125.177 34.8528 124.443 36.6494 123.221 37.8715C121.693 39.3612 119.287 40.106 116.002 40.106H93.1989C89.914 40.106 87.5076 39.3612 85.9798 37.8715ZM125.513 27.7304V28.4579L110.055 28.996C110.118 28.9603 110.171 28.9205 110.215 28.8763C110.483 28.609 110.616 28.1124 110.616 27.3867V26.1835C110.616 25.4578 110.483 24.9803 110.215 24.7511C109.986 24.4838 109.509 24.3501 108.783 24.3501H101.449V15.2976H108.21C108.936 15.2976 109.413 15.183 109.642 14.9538C109.91 14.6864 110.043 14.1899 110.043 13.4642V12.7193C110.043 11.9936 109.91 11.5162 109.642 11.287C109.413 11.0196 108.936 10.8859 108.21 10.8859H100.418C99.6922 10.8859 99.1957 11.0196 98.9283 11.287C98.6991 11.5162 98.5845 11.9936 98.5845 12.7193V15.3549H84.2609V9.51085C84.2609 6.18778 85.0249 3.78142 86.5527 2.29177C88.0806 0.763924 90.4869 0 93.7718 0H115.429C118.714 0 121.12 0.763924 122.648 2.29177C124.176 3.78142 124.94 6.18778 124.94 9.51085V11.9172C124.94 16.157 123.45 18.7734 120.471 19.7665C123.832 20.6068 125.513 23.2615 125.513 27.7304ZM83.688 29.9138L103.617 29.2201H99.845C99.1193 29.2201 98.6227 29.1055 98.3553 28.8763C98.1262 28.609 98.0116 28.1124 98.0116 27.3867V24.2928H83.688V29.9138ZM14.8946 29.2201H23.9471C24.6728 29.2201 25.1502 29.1055 25.3794 28.8763C25.6468 28.609 25.7805 28.1124 25.7805 27.3867V26.0116C25.7805 25.2859 25.6468 24.8084 25.3794 24.5793C25.1502 24.3119 24.6728 24.1782 23.9471 24.1782H14.8946V29.2201ZM35.2913 78.6519C38.8818 79.4541 40.677 82.1469 40.677 86.7304V89.5952C40.677 89.9205 40.6697 90.2373 40.655 90.5455L-0.00195312 91.1157V59H30.0203C33.3051 59 35.7115 59.7639 37.2393 61.2918C38.7672 62.7814 39.5311 65.1878 39.5311 68.5109V70.9172C39.5311 75.0042 38.1179 77.5825 35.2913 78.6519ZM-0.00195312 97.0138V99.106H31.1661C34.451 99.106 36.8574 98.3612 38.3852 96.8715C38.6286 96.6282 38.8525 96.3621 39.0571 96.0732L-0.00195312 97.0138ZM46.883 95.8847C46.9752 95.9872 47.0699 96.0869 47.1669 96.184C49.1531 98.132 52.1897 99.106 56.2767 99.106H75.1838C79.2708 99.106 82.2883 98.132 84.2363 96.184C84.6124 95.8152 84.9528 95.4074 85.2576 94.9606L46.883 95.8847ZM89.6479 94.8549V105.981H103.399V99.106H128.035V105.981H141.786V93.5993L89.6479 94.8549ZM141.786 89.1269L89.6479 89.8583V86.5013H93.6585C94.6516 86.5013 95.3201 86.3294 95.6638 85.9856C96.0458 85.6037 96.275 84.897 96.3514 83.8657L98.0129 59H135.483V86.5013H141.786V89.1269ZM144.633 93.5307V99.106H173.853C177.634 99.106 180.384 98.2466 182.103 96.5278C183.102 95.5504 183.817 94.2333 184.248 92.5767L144.633 93.5307ZM184.737 88.5245L144.633 89.087V59H159.529V69.313H173.853C177.634 69.313 180.384 70.1724 182.103 71.8912C183.86 73.61 184.739 76.3793 184.739 80.1989V88.2201C184.739 88.3223 184.738 88.4238 184.737 88.5245ZM188.405 92.4765V99.106H203.531V92.1123L188.405 92.4765ZM203.531 88.2609L188.405 88.473V59H203.531V88.2609ZM225.309 91.5878V99.106H263.582V90.6661L225.309 91.5878ZM247.284 87.6471L225.309 87.9554V85.47C225.309 82.2997 226.054 79.9697 227.544 78.4801C229.033 76.9904 231.459 76.0355 234.82 75.6153L248.112 74.0111C248.838 73.9347 249.316 73.7819 249.545 73.5528C249.812 73.2854 249.946 72.827 249.946 72.1777V71.0318C249.946 70.3061 249.812 69.8286 249.545 69.5994C249.316 69.3321 248.838 69.1984 248.112 69.1984H241.695C240.97 69.1984 240.473 69.3321 240.206 69.5994C239.977 69.8286 239.862 70.3061 239.862 71.0318V72.8652H226.111V68.5109C226.111 65.1878 226.875 62.7814 228.403 61.2918C229.931 59.7639 232.337 59 235.622 59H254.758C258.043 59 260.45 59.7639 261.978 61.2918C263.505 62.7814 264.269 65.1878 264.269 68.5109V73.6673C264.269 76.8376 263.524 79.1676 262.035 80.6572C260.545 82.1469 258.12 83.1018 254.758 83.522L241.466 85.1262C240.74 85.2026 240.244 85.3745 239.977 85.6419C239.747 85.871 239.633 86.3103 239.633 86.9596V87.6471H247.284ZM268.621 90.5448V99.106H284.663V90.1584L268.621 90.5448ZM284.663 87.1228L268.621 87.3479V84.2095H284.663V87.1228ZM289.232 90.0484C289.605 92.6931 290.514 94.7383 291.96 96.184C293.946 98.132 296.983 99.106 301.07 99.106H315.966C320.053 99.106 323.071 98.132 325.019 96.184C326.661 94.5729 327.625 92.2172 327.909 89.117L289.232 90.0484ZM327.998 86.515V71.0318C327.998 66.9066 327.005 63.87 325.019 61.922C323.071 59.974 320.053 59 315.966 59H301.07C296.983 59 293.946 59.974 291.96 61.922C290.012 63.87 289.038 66.9066 289.038 71.0318V87.0615L304.827 86.84C304.439 86.7452 304.142 86.5941 303.934 86.3867C303.552 86.0047 303.361 85.3172 303.361 84.3241V73.7819C303.361 72.7888 303.552 72.1013 303.934 71.7193C304.316 71.3374 305.004 71.1464 305.997 71.1464H311.039C312.032 71.1464 312.72 71.3374 313.102 71.7193C313.483 72.1013 313.674 72.7888 313.674 73.7819V84.3241C313.674 85.3172 313.483 86.0047 313.102 86.3867C312.96 86.5277 312.778 86.6427 312.553 86.7316L327.998 86.515ZM87.0389 89.8949L44.5076 90.4914C44.3325 89.4502 44.2449 88.3112 44.2449 87.0742V71.0318C44.2449 66.9066 45.2189 63.87 47.1669 61.922C49.1531 59.974 52.1897 59 56.2767 59H75.1838C79.2708 59 82.2883 59.974 84.2363 61.922C86.2225 63.87 87.2156 66.9066 87.2156 71.0318V87.0742C87.2156 88.079 87.1567 89.0192 87.0389 89.8949ZM14.8946 69.8859V74.5841H22.8012C23.5269 74.5841 24.0044 74.4695 24.2335 74.2403C24.5009 73.9729 24.6346 73.4764 24.6346 72.7506V71.7193C24.6346 70.9936 24.5009 70.5162 24.2335 70.287C24.0044 70.0196 23.5269 69.8859 22.8012 69.8859H14.8946ZM25.7805 86.3867V84.897C25.7805 84.1713 25.6468 83.6938 25.3794 83.4647C25.1502 83.1973 24.6728 83.0636 23.9471 83.0636H14.8946V88.2201H23.9471C24.6728 88.2201 25.1502 88.1055 25.3794 87.8763C25.6468 87.609 25.7805 87.1124 25.7805 86.3867ZM61.777 86.5013H69.6836C70.6767 86.5013 71.3642 86.3103 71.7462 85.9283C72.1281 85.5464 72.3191 84.8588 72.3191 83.8657V74.2403C72.3191 73.2472 72.1281 72.5597 71.7462 72.1777C71.3642 71.7957 70.6767 71.6048 69.6836 71.6048H61.777C60.7839 71.6048 60.0963 71.7957 59.7144 72.1777C59.3324 72.5597 59.1414 73.2472 59.1414 74.2403V83.8657C59.1414 84.8588 59.3324 85.5464 59.7144 85.9283C60.0963 86.3103 60.7839 86.5013 61.777 86.5013ZM111.534 82.4907C111.42 84.1331 111.21 85.47 110.904 86.5013H120.587V72.1777H112.336L111.534 82.4907ZM159.529 80.1989V87.6471H167.665C168.505 87.6471 169.078 87.4944 169.384 87.1888C169.689 86.8832 169.842 86.3103 169.842 85.47V82.3761C169.842 81.5358 169.689 80.9628 169.384 80.6572C169.078 80.3517 168.505 80.1989 167.665 80.1989H159.529Z" fill="white"/>
</svg>
