<svg width="248" height="66" viewBox="0 0 248 66" fill="none" xmlns="http://www.w3.org/2000/svg">
<rect x="2.38281" y="0.210938" width="245" height="57" rx="28.5" transform="rotate(1.98 2.38281 0.210938)" fill="white"/>
<rect x="2.38281" y="0.210938" width="245" height="57" rx="28.5" transform="rotate(1.98 2.38281 0.210938)" fill="url(#paint0_linear_1054_1982)"/>
<g clip-path="url(#clip0_1054_1982)">
<path fill-rule="evenodd" clip-rule="evenodd" d="M29.9339 13.671C21.1168 13.3662 13.6954 20.2913 13.3906 29.1085C13.0857 37.926 20.0111 45.3471 28.8283 45.6519C37.6455 45.9567 45.0666 39.0316 45.3714 30.2141C45.6763 21.3969 38.7512 13.9758 29.9339 13.671Z" fill="white"/>
<path fill-rule="evenodd" clip-rule="evenodd" d="M29.1006 38.2818C26.2464 38.1832 24.2543 36.8703 23.492 34.5845C22.6799 32.1493 23.3934 29.1322 25.2024 26.6994C25.1359 28.1886 25.6581 29.3436 26.3534 30.0549C27.2557 30.9785 28.5008 31.2694 29.524 30.7961C30.1011 30.5296 31.4151 29.6066 31.1554 26.7996C31.1339 26.5587 31.0985 26.3135 31.0612 26.0538C30.912 25.0183 30.7486 23.8831 31.3178 22.539C31.8332 25.2327 32.9125 26.9765 33.8138 28.4331C34.7308 29.9144 35.4544 31.0843 35.3949 32.8059C35.2865 35.9417 32.4631 38.3981 29.1006 38.2818ZM32.5504 20.3179C32.531 20.0108 32.3262 19.7465 32.0336 19.6514C31.7413 19.5563 31.4204 19.6496 31.224 19.8859C29.0388 22.527 29.3625 24.7784 29.5762 26.2678C29.6109 26.5079 29.6432 26.735 29.6625 26.9375C29.7812 28.2242 29.4937 29.1574 28.8944 29.4349C28.4552 29.6381 27.879 29.4701 27.426 29.0066C26.6801 28.2436 26.2717 26.6347 27.3634 24.4078C27.5183 24.0919 27.4327 23.711 27.1582 23.4915C26.8829 23.2719 26.4929 23.2732 26.2195 23.4936C24.3854 24.9721 23.0185 26.8904 22.2665 29.0421C21.5393 31.1238 21.469 33.2607 22.0691 35.0593C23.0297 37.9401 25.5736 39.6606 29.0489 39.7808C33.2378 39.9256 36.7571 36.8206 36.8941 32.8579C36.9693 30.6817 36.056 29.2061 35.0896 27.6437C34.0044 25.8914 32.7748 23.9045 32.5504 20.3179Z" fill="white"/>
<path fill-rule="evenodd" clip-rule="evenodd" d="M32.5504 20.3179C32.531 20.0108 32.3262 19.7465 32.0336 19.6514C31.7413 19.5563 31.4204 19.6496 31.224 19.8859C29.0388 22.527 29.3625 24.7784 29.5762 26.2678C29.6109 26.5079 29.6432 26.735 29.6625 26.9375C29.7812 28.2242 29.4937 29.1574 28.8944 29.4349C28.4552 29.6381 27.879 29.4701 27.426 29.0066C26.6801 28.2436 26.2717 26.6347 27.3634 24.4078C27.5183 24.0919 27.4327 23.711 27.1582 23.4915C26.8829 23.2719 26.4929 23.2732 26.2195 23.4936C24.3854 24.9721 23.0185 26.8904 22.2665 29.0421C21.5393 31.1238 21.469 33.2607 22.0691 35.0593C23.0297 37.9401 25.5736 39.6606 29.0489 39.7808C33.2378 39.9256 36.7571 36.8206 36.8941 32.8579C36.9693 30.6817 36.056 29.2061 35.0896 27.6437C34.0044 25.8914 32.7748 23.9045 32.5504 20.3179Z" fill="#C60C0C"/>
</g>
<path d="M72.0429 21.8307L71.9169 25.4765L66.1123 25.2758L65.6579 38.42L61.5324 38.2774L61.9868 25.1332L56.1823 24.9325L56.3083 21.2867L72.0429 21.8307ZM75.6834 38.7666C74.2123 38.7157 73.1599 38.3591 72.5264 37.6969C71.8935 37.0186 71.6027 35.9359 71.6542 34.4488L71.8067 30.0354C71.8581 28.5483 72.2227 27.4963 72.9004 26.8793C73.5787 26.2464 74.6534 25.9553 76.1245 26.0062L81.929 26.2069C83.4002 26.2577 84.4522 26.6223 85.0851 27.3006C85.7186 27.9628 86.0097 29.0375 85.9583 30.5247L85.8057 34.938C85.7543 36.4251 85.3894 37.4852 84.7112 38.1181C84.0334 38.7351 82.959 39.0181 81.4879 38.9672L75.6834 38.7666ZM77.1823 35.6965L80.2045 35.801C80.8442 35.8231 81.2878 35.7264 81.5354 35.5108C81.7835 35.2793 81.9186 34.8437 81.9407 34.204L82.0519 30.99C82.074 30.3503 81.969 29.9145 81.7369 29.6823C81.5053 29.4342 81.0697 29.299 80.4301 29.2769L77.4079 29.1724C76.7683 29.1503 76.3244 29.255 76.0762 29.4866C75.8286 29.7022 75.6938 30.1298 75.6717 30.7694L75.5606 33.9835C75.5384 34.6231 75.6432 35.067 75.8747 35.3151C76.1069 35.5473 76.5427 35.6744 77.1823 35.6965ZM98.4945 26.7796C99.9656 26.8304 101.018 27.195 101.651 27.8733C102.284 28.5355 102.575 29.6102 102.524 31.0973L102.371 35.5107C102.32 36.9978 101.955 38.0578 101.277 38.6908C100.599 39.3077 99.5245 39.5908 98.0534 39.5399L96.4943 39.486C95.359 39.4468 94.4983 39.337 93.9122 39.1566C93.3266 38.9603 92.692 38.5621 92.0083 37.9621L91.8284 43.167L87.9427 43.0327L88.5165 26.4346L91.7306 26.5457L92.0348 28.1652C92.8735 27.5218 93.6 27.1146 94.2143 26.9438C94.8291 26.7569 95.7362 26.6842 96.9355 26.7257L98.4945 26.7796ZM98.4822 34.7759L98.5934 31.5618C98.6155 30.9222 98.5105 30.4863 98.2783 30.2542C98.0628 30.0066 97.6352 29.8717 96.9956 29.8496L95.5324 29.799C94.4291 29.7609 93.5899 29.956 93.0147 30.3844L92.2513 30.9343L92.1119 34.9639L92.8356 35.5653C93.4118 36.0335 94.2355 36.2861 95.3069 36.3231L96.77 36.3737C97.4096 36.3958 97.8452 36.2988 98.0768 36.0827C98.325 35.8511 98.4601 35.4155 98.4822 34.7759ZM108.617 39.9051C107.146 39.8543 106.093 39.4977 105.46 38.8354C104.827 38.1571 104.536 37.0744 104.588 35.5873L104.74 31.174C104.792 29.6869 105.156 28.6348 105.834 28.0179C106.512 27.3849 107.587 27.0939 109.058 27.1447L114.862 27.3454C116.334 27.3963 117.386 27.7608 118.019 28.4391C118.652 29.1014 118.943 30.1761 118.892 31.6632L118.739 36.0766C118.688 37.5637 118.323 38.6237 117.645 39.2567C116.967 39.8736 115.892 40.1567 114.421 40.1058L108.617 39.9051ZM110.116 36.8351L113.138 36.9396C113.778 36.9617 114.221 36.8649 114.469 36.6494C114.717 36.4178 114.852 35.9822 114.874 35.3426L114.985 32.1285C115.007 31.4889 114.902 31.053 114.67 30.8209C114.439 30.5727 114.003 30.4376 113.364 30.4155L110.341 30.311C109.702 30.2889 109.258 30.3936 109.01 30.6252C108.762 30.8407 108.627 31.2683 108.605 31.9079L108.494 35.122C108.472 35.7616 108.577 36.2055 108.808 36.4537C109.04 36.6858 109.476 36.813 110.116 36.8351ZM121.009 40.3335L121.45 27.5732L135.362 28.0541L134.92 40.8145L131.011 40.6793L131.342 31.109L125.225 30.8976L124.894 40.4679L121.009 40.3335ZM148.996 28.5254L152.258 28.6382L151.817 41.3986L148.051 41.2684L148.325 33.3292L140.639 41.0122L137.569 40.906L138.01 28.1457L141.752 28.275L141.484 36.0224L148.996 28.5254ZM153.805 31.8856L153.915 28.6955L167.251 29.1566L167.141 32.3467L162.416 32.1833L162.085 41.7536L158.199 41.6193L158.53 32.049L153.805 31.8856ZM178.335 29.5397C179.806 29.5906 180.858 29.9552 181.491 30.6334C182.124 31.2957 182.415 32.3704 182.364 33.8575L182.265 36.7118L172.239 36.3652L172.203 37.4206C172.181 38.0602 172.285 38.5041 172.517 38.7522C172.749 38.9844 173.185 39.1115 173.824 39.1336L177.086 39.2464C177.582 39.2635 177.929 39.1795 178.128 38.9942C178.343 38.7935 178.459 38.4453 178.476 37.9496L178.488 37.6138L182.229 37.7432L182.191 38.8465C182.148 40.0938 181.821 40.995 181.209 41.5502C180.614 42.106 179.7 42.3626 178.469 42.32L172.329 42.1077C170.858 42.0569 169.805 41.7003 169.172 41.038C168.539 40.3597 168.248 39.277 168.3 37.7899L168.452 33.3766C168.504 31.8895 168.868 30.8374 169.546 30.2205C170.224 29.5875 171.299 29.2965 172.77 29.3474L178.335 29.5397ZM172.32 34.0146L178.605 34.2319L178.613 33.992C178.635 33.3524 178.53 32.9165 178.298 32.6843C178.066 32.4362 177.631 32.3011 176.991 32.2789L174.065 32.1778C173.425 32.1557 172.981 32.2604 172.733 32.492C172.486 32.7075 172.351 33.1351 172.329 33.7747L172.32 34.0146ZM184.415 38.3471L184.567 33.9337C184.619 32.4466 184.983 31.3946 185.661 30.7776C186.339 30.1447 187.414 29.8536 188.885 29.9045L194.066 30.0836C195.537 30.1344 196.589 30.499 197.222 31.1773C197.856 31.8396 198.147 32.9143 198.095 34.4014L198.058 35.4807L194.316 35.3514L194.333 34.8717C194.355 34.232 194.25 33.7962 194.018 33.564C193.786 33.3159 193.351 33.1807 192.711 33.1586L190.169 33.0707C189.529 33.0486 189.085 33.1533 188.837 33.3849C188.589 33.6005 188.455 34.0281 188.432 34.6677L188.321 37.8818C188.299 38.5214 188.404 38.9653 188.635 39.2134C188.868 39.4456 189.303 39.5727 189.943 39.5948L192.486 39.6827C193.125 39.7048 193.569 39.6081 193.816 39.3925C194.065 39.161 194.2 38.7254 194.222 38.0857L194.243 37.4621L197.985 37.5915L197.943 38.8147C197.891 40.3019 197.527 41.3619 196.848 41.9948C196.171 42.6118 195.096 42.8948 193.625 42.844L188.444 42.6649C186.973 42.614 185.921 42.2574 185.287 41.5951C184.654 40.9169 184.363 39.8342 184.415 38.3471ZM200.668 30.3118L204.554 30.4462L204.419 34.3558L210.559 34.5681C211.758 34.6096 212.628 34.9198 213.168 35.4988C213.725 36.0784 213.982 36.9758 213.94 38.1911L213.876 40.038C213.834 41.2533 213.516 42.1308 212.921 42.6705C212.342 43.2109 211.452 43.4603 210.253 43.4188L200.227 43.0722L200.668 30.3118ZM204.33 36.9223L204.206 40.4962L208.668 40.6504C209.148 40.667 209.478 40.5904 209.66 40.4206C209.859 40.2353 209.966 39.9028 209.983 39.4231L210.019 38.3917C210.035 37.912 209.951 37.5809 209.765 37.3984C209.596 37.2004 209.271 37.0931 208.791 37.0765L204.33 36.9223ZM216.409 26.8216L220.919 26.9775L219.71 38.3185L216.832 38.219L216.409 26.8216ZM215.781 43.6099L215.915 39.7242L220.52 39.8835L220.386 43.7691L215.781 43.6099Z" fill="white"/>
<defs>
<linearGradient id="paint0_linear_1054_1982" x1="2.38281" y1="28.2437" x2="247.383" y2="28.2437" gradientUnits="userSpaceOnUse">
<stop stop-color="#CE0D0D"/>
<stop offset="1" stop-color="#620606"/>
</linearGradient>
<clipPath id="clip0_1054_1982">
<rect width="32" height="32" fill="white" transform="translate(13.9434 13.1182) rotate(1.98)"/>
</clipPath>
</defs>
</svg>
