<svg width="215" height="60" viewBox="0 0 215 60" fill="none" xmlns="http://www.w3.org/2000/svg">
<rect x="1" width="214" height="57" rx="28.5" transform="rotate(0.668279 1 0)" fill="white"/>
<rect x="1" width="214" height="57" rx="28.5" transform="rotate(0.668279 1 0)" fill="url(#paint0_linear_1054_2287)"/>
<g clip-path="url(#clip0_1054_2287)">
<path fill-rule="evenodd" clip-rule="evenodd" d="M28.8526 12.8258C20.0307 12.7229 12.7698 19.816 12.6669 28.6379C12.564 37.4601 19.6575 44.7207 28.4793 44.8236C37.3012 44.9265 44.5618 37.8333 44.6647 29.0112C44.7676 20.1893 37.6745 12.9287 28.8526 12.8258Z" fill="white"/>
<path fill-rule="evenodd" clip-rule="evenodd" d="M28.5846 37.4495C25.7288 37.4162 23.7072 36.1492 22.8927 33.8815C22.0252 31.4655 22.6694 28.4329 24.4222 25.9593C24.3898 27.4497 24.9384 28.5924 25.6497 29.2876C26.5729 30.1903 27.8244 30.4526 28.8365 29.956C29.4073 29.6764 30.6998 28.7235 30.376 25.9232C30.349 25.6829 30.308 25.4386 30.2647 25.1798C30.0918 24.1479 29.9025 23.0167 30.4408 21.66C31.0178 24.3412 32.1367 26.0599 33.0711 27.4954C34.0218 28.9554 34.7719 30.1084 34.7518 31.8309C34.7153 34.9683 31.9489 37.4887 28.5846 37.4495ZM31.6222 19.4113C31.5957 19.1047 31.385 18.8451 31.0903 18.7567C30.7959 18.6684 30.4772 18.769 30.2863 19.0097C28.1621 21.7002 28.5372 23.9436 28.785 25.4277C28.8252 25.667 28.8627 25.8932 28.8866 26.0952C29.0347 27.3789 28.7687 28.3184 28.1759 28.6096C27.7415 28.8227 27.1616 28.668 26.6981 28.215C25.9349 27.4693 25.4898 25.8701 26.5303 23.6188C26.6779 23.2995 26.5835 22.9206 26.3041 22.7075C26.0238 22.4943 25.6339 22.5045 25.3657 22.731C23.5659 24.2512 22.2432 26.2002 21.5407 28.3686C20.8614 30.4664 20.84 32.6043 21.4811 34.3888C22.5074 37.2468 25.09 38.9086 28.5672 38.9492C32.7583 38.9981 36.2056 35.8133 36.2518 31.8486C36.2772 29.6712 35.3303 28.2169 34.3284 26.677C33.2034 24.95 31.9287 22.9918 31.6222 19.4113Z" fill="white"/>
<path d="M35.3555 27.5812C35.2442 27.3675 35.0256 27.2351 34.7851 27.2351H31.2085C31.0777 27.2351 30.9713 27.1286 30.9713 26.9978V18.0676C30.9713 17.78 30.7941 17.5403 30.5211 17.4534C30.2481 17.3697 29.9646 17.4639 29.8004 17.6987L21.3602 29.7554C21.2221 29.9529 21.2066 30.2088 21.3171 30.4217C21.4276 30.6346 21.647 30.7678 21.8875 30.7678H25.4641C25.5949 30.7678 25.7014 30.8742 25.7014 31.0051V39.9352C25.6778 40.5462 26.5358 40.8217 26.8714 40.3041L35.3116 28.2474C35.4506 28.05 35.466 27.7949 35.3555 27.5812Z" fill="#F5501C"/>
</g>
<path d="M56.0012 33.0438L56.0197 31.4599L60.0034 31.5063L59.9958 32.1543C59.9901 32.6503 60.0819 33.0034 60.2715 33.2136C60.4772 33.408 60.8281 33.5081 61.3241 33.5139L67.0837 33.5811C67.5796 33.5869 67.9247 33.4949 68.119 33.3051C68.3294 33.0996 68.4375 32.7488 68.4433 32.2528L68.4519 31.5089C68.4577 31.0129 68.3656 30.6758 68.1757 30.4976C67.9858 30.3194 67.6351 30.2033 67.1237 30.1493L59.884 29.3928C58.6214 29.2661 57.7052 28.9354 57.1354 28.4007C56.5818 27.8502 56.3121 26.967 56.3263 25.7511L56.3531 23.4472C56.3677 22.1993 56.6663 21.2907 57.249 20.7215C57.8477 20.1524 58.763 19.8751 59.9949 19.8895L68.7783 19.9919C70.0102 20.0063 70.9108 20.3048 71.48 20.8875C72.0653 21.4703 72.3506 22.3857 72.3361 23.6337L72.3209 24.9296L68.3372 24.8831L68.3414 24.5231C68.3472 24.0272 68.2472 23.682 68.0415 23.4876C67.8519 23.2773 67.5091 23.1693 67.0132 23.1635L61.8295 23.1031C61.3336 23.0973 60.9804 23.1972 60.77 23.4027C60.5757 23.5925 60.4757 23.9353 60.4699 24.4313L60.4663 24.7433C60.4605 25.2393 60.5526 25.5763 60.7425 25.7546C60.9325 25.9328 61.2831 26.0489 61.7945 26.1029L69.0342 26.8594C70.2968 26.9861 71.2049 27.3247 71.7585 27.8752C72.3283 28.4099 72.6062 29.2852 72.592 30.5011L72.5601 33.2369C72.5455 34.4848 72.2389 35.3933 71.6402 35.9624C71.0575 36.5316 70.1502 36.8091 68.9183 36.7947L59.559 36.6855C58.327 36.6711 57.4185 36.3725 56.8332 35.7897C56.264 35.207 55.9866 34.2917 56.0012 33.0438ZM85.1025 24.2146C86.5744 24.2318 87.6345 24.5721 88.2828 25.2358C88.9313 25.8834 89.2468 26.9511 89.2295 28.439L89.178 32.8547C89.1606 34.3426 88.8201 35.4107 88.1565 36.059C87.4931 36.6913 86.4254 36.9989 84.9535 36.9817L83.3936 36.9635C82.2577 36.9503 81.3947 36.8602 80.8046 36.6933C80.2147 36.5104 79.5711 36.1269 78.8739 35.5427L78.8132 40.7504L74.9254 40.705L75.1191 24.0981L78.3349 24.1357L78.6761 25.7477C79.4999 25.0853 80.2169 24.6616 80.8271 24.4767C81.4375 24.2758 82.3426 24.1824 83.5426 24.1964L85.1025 24.2146ZM85.2732 32.2091L85.3107 28.9933C85.3182 28.3534 85.2032 27.92 84.9659 27.6932C84.7447 27.4506 84.3141 27.3256 83.6742 27.3181L82.2103 27.3011C81.1063 27.2882 80.2718 27.5025 79.7066 27.9439L78.9559 28.5112L78.9089 32.5429L79.6461 33.1276C80.2329 33.5824 81.0622 33.8161 82.1341 33.8286L83.598 33.8457C84.238 33.8532 84.6713 33.7462 84.8979 33.5248C85.1406 33.2877 85.2658 32.8491 85.2732 32.2091ZM101.239 24.4028C102.711 24.42 103.771 24.7604 104.419 25.424C105.068 26.0716 105.383 27.1393 105.366 28.6272L105.333 31.483L95.3015 31.366L95.2892 32.422C95.2817 33.0619 95.3966 33.5033 95.6338 33.7461C95.8711 33.9729 96.3098 34.09 96.9497 34.0974L100.214 34.1355C100.709 34.1413 101.055 34.0493 101.249 33.8596C101.459 33.654 101.567 33.3032 101.573 32.8073L101.577 32.4713L105.321 32.515L105.308 33.6189C105.293 34.8668 104.987 35.7753 104.388 36.3444C103.805 36.9136 102.898 37.191 101.666 37.1767L95.5226 37.105C94.0507 37.0878 92.9905 36.7554 92.342 36.1078C91.6937 35.4442 91.3782 34.3685 91.3956 32.8806L91.4471 28.4649C91.4644 26.977 91.8048 25.9169 92.4682 25.2846C93.1318 24.6363 94.1996 24.3207 95.6715 24.3379L101.239 24.4028ZM95.3289 29.0142L101.616 29.0875L101.619 28.8475C101.627 28.2076 101.512 27.7742 101.274 27.5474C101.037 27.3047 100.599 27.1795 99.9587 27.1721L97.0309 27.1379C96.391 27.1305 95.9496 27.2453 95.7068 27.4825C95.4642 27.7037 95.3392 28.1343 95.3317 28.7742L95.3289 29.0142ZM117.363 24.5909C118.835 24.6081 119.895 24.9484 120.543 25.612C121.192 26.2597 121.507 27.3274 121.49 28.8153L121.457 31.6711L111.425 31.5541L111.413 32.61C111.406 33.25 111.52 33.6914 111.758 33.9341C111.995 34.1609 112.434 34.2781 113.074 34.2855L116.337 34.3236C116.833 34.3294 117.178 34.2374 117.373 34.0476C117.583 33.8421 117.691 33.4913 117.697 32.9954L117.701 32.6594L121.445 32.703L121.432 33.807C121.417 35.0549 121.111 35.9634 120.512 36.5324C119.929 37.1017 119.022 37.3791 117.79 37.3647L111.646 37.2931C110.175 37.2759 109.114 36.9435 108.466 36.2959C107.818 35.6323 107.502 34.5566 107.519 33.0687L107.571 28.653C107.588 27.1651 107.929 26.105 108.592 25.4726C109.256 24.8243 110.323 24.5088 111.795 24.5259L117.363 24.5909ZM111.453 29.2023L117.74 29.2756L117.743 29.0356C117.751 28.3957 117.636 27.9623 117.398 27.7355C117.161 27.4927 116.723 27.3676 116.083 27.3601L113.155 27.326C112.515 27.3185 112.074 27.4334 111.831 27.6706C111.588 27.8918 111.463 28.3223 111.456 28.9623L111.453 29.2023ZM134.062 20.7534L137.95 20.7987L137.754 37.5976L134.538 37.5601L134.197 35.948C133.389 36.6106 132.672 37.0423 132.045 37.243C131.419 37.4277 130.506 37.5131 129.306 37.4991L127.77 37.4811C126.298 37.464 125.238 37.1316 124.59 36.484C123.941 35.8204 123.626 34.7446 123.643 33.2567L123.695 28.841C123.712 27.3531 124.053 26.293 124.716 25.6607C125.38 25.0124 126.447 24.6968 127.919 24.714L129.455 24.7319C130.591 24.7452 131.454 24.8433 132.044 25.0261C132.65 25.1932 133.302 25.5689 133.999 26.153L134.062 20.7534ZM130.663 34.3947C131.735 34.4072 132.561 34.1928 133.142 33.7515L133.917 33.1845L133.964 29.1528L133.203 28.5679C132.664 28.1136 131.843 27.88 130.739 27.8671L129.275 27.85C128.635 27.8426 128.193 27.9574 127.951 28.1946C127.708 28.4158 127.583 28.8464 127.576 29.4863L127.538 32.7021C127.531 33.3421 127.645 33.7834 127.883 34.0262C128.12 34.253 128.559 34.3701 129.199 34.3776L130.663 34.3947ZM156.986 37.8219L152.474 37.7693L148.655 31.8684L144.623 31.8213L144.555 37.6769L140.427 37.6288L140.623 20.8299L152.286 20.966C153.758 20.9831 154.818 21.3235 155.467 21.9871C156.115 22.6347 156.431 23.7025 156.413 25.1904L156.387 27.4942C156.371 28.8541 156.079 29.8588 155.511 30.5082C154.96 31.1578 154.075 31.5235 152.858 31.6054L156.986 37.8219ZM144.715 23.9499L144.658 28.8455L150.586 28.9147C151.226 28.9221 151.659 28.8072 151.886 28.5698C152.128 28.3326 152.254 27.8941 152.261 27.2541L152.279 25.7182C152.286 25.0782 152.172 24.6369 151.934 24.3941C151.713 24.1515 151.283 24.0265 150.643 24.019L144.715 23.9499ZM172.702 25.2364L172.553 38.0035L169.337 37.966L168.996 36.3539C168.172 37.0163 167.455 37.448 166.845 37.6489C166.235 37.8338 165.33 37.9192 164.13 37.9053L162.81 37.8899C161.338 37.8727 160.278 37.5403 159.629 36.8927C158.981 36.2291 158.666 35.1533 158.683 33.6654L158.783 25.074L162.695 25.1196L162.602 33.0391C162.595 33.6791 162.702 34.1203 162.923 34.3629C163.16 34.5897 163.599 34.7068 164.239 34.7143L165.463 34.7286C166.535 34.7411 167.37 34.5188 167.967 34.0617L168.718 33.4945L168.814 25.191L172.702 25.2364ZM185.074 25.3807C186.546 25.3979 187.606 25.7382 188.255 26.4018C188.903 27.0495 189.219 28.1172 189.201 29.6051L189.101 38.1965L185.189 38.1509L185.282 30.2314C185.289 29.5915 185.174 29.1581 184.937 28.9313C184.716 28.6887 184.285 28.5637 183.645 28.5562L182.421 28.542C181.349 28.5295 180.515 28.7517 179.917 29.2088L179.167 29.7761L179.07 38.0795L175.182 38.0342L175.331 25.267L178.547 25.3045L178.888 26.9166C179.712 26.2542 180.429 25.8305 181.039 25.6456C181.649 25.4447 182.555 25.3513 183.755 25.3653L185.074 25.3807Z" fill="white"/>
<defs>
<linearGradient id="paint0_linear_1054_2287" x1="1" y1="28.0328" x2="215" y2="28.0328" gradientUnits="userSpaceOnUse">
<stop stop-color="#EC8D24"/>
<stop offset="0.414" stop-color="#FF1414"/>
<stop offset="1" stop-color="#B50000"/>
</linearGradient>
<clipPath id="clip0_1054_2287">
<rect width="32" height="32" fill="white" transform="translate(12.8535 12.6392) rotate(0.668279)"/>
</clipPath>
</defs>
</svg>
