<svg xmlns="http://www.w3.org/2000/svg" viewBox="0 0 507.99 296.06"><defs><style>.cls-1{fill:#ca4e5d;}.cls-2{fill:#1a1a1a;}</style></defs><g id="Слой_2" data-name="Слой 2"><g id="Слой_1-2" data-name="Слой 1"><path class="cls-1" d="M328.36,109.11,327.62,121l-42.56,43.7c2.83-31.32,5.42-61.84-18.95-85.88-7.24-6.69-15-13.36-19-22.49h57c-.31,28.61,25.11,30.56,24.27,52.81"/><path class="cls-1" d="M390.57,56.3l-43.23,44.41c-2.29-22.53-22.71-25.58-23.75-44.41Z"/><path class="cls-1" d="M185.49,106.94H119.76L162,63.6c2.64,21.18,22.86,24.71,23.53,43.34"/><path class="cls-1" d="M262.28,106.94H205c-1.2-35.84-29.35-27-23.64-63.24L223.88,0c-2.94,28.18-4.36,59.87,17.1,81.71,7.68,7.88,17,14.81,21.3,25.23"/><path class="cls-2" d="M9,210.6H33.32c8.08,0,12.15,3.8,10.73,10.45-.88,4.16-3.41,7.13-7.31,9.26l-.05.24c3.66,1.78,5.56,5.7,4.57,10.33C40,247.06,34,252.17,25.44,252.17H.13Zm16,32.66c3.92,0,5.8-1.6,6.28-3.86s-.84-3.86-4.76-3.86H14l-1.64,7.72Zm2.1-16.63c3.45,0,5.62-.71,6.23-3.56s-1.26-3.56-4.71-3.56H17.41l-1.51,7.12Z"/><polygon class="cls-2" points="57.22 242.9 82.29 242.9 80.32 252.17 44.91 252.17 53.75 210.6 89.15 210.6 87.19 219.86 62.12 219.86 60.7 226.51 83.39 226.51 81.5 235.42 58.81 235.42 57.22 242.9"/><polygon class="cls-2" points="96.03 210.6 106.37 210.6 103.06 226.16 107.88 226.16 124.25 210.6 136.67 210.6 115.12 230.91 128.19 252.17 115.53 252.17 105.5 235.66 101.04 235.66 97.53 252.17 87.2 252.17 96.03 210.6"/><polygon class="cls-2" points="152.7 220.1 137.37 220.1 139.39 210.6 180.38 210.6 178.36 220.1 163.03 220.1 156.22 252.17 145.88 252.17 152.7 220.1"/><path class="cls-2" d="M179.75,231.38a26.66,26.66,0,0,1,26.34-21.61c12.47,0,20,8.31,17.15,21.61A26.67,26.67,0,0,1,196.9,253c-12.48,0-20-8.32-17.15-21.62m33.15,0c1.59-7.48-2.06-12.11-8.83-12.11s-12.39,4.63-14,12.11,2.06,12.12,8.83,12.12,12.39-4.63,14-12.12"/><path class="cls-2" d="M238.35,239.58l-2.67,12.59H225.34l8.84-41.57h24.59c8.67,0,14.14,5.58,12.25,14.49s-9.74,14.49-18.41,14.49Zm16.23-9.27a6.3,6.3,0,0,0,6.1-5.22c.66-3.09-.91-5.23-3.88-5.23H242.54l-2.22,10.45Z"/><polygon class="cls-2" points="304.02 220.1 288.69 220.1 290.71 210.6 331.7 210.6 329.68 220.1 314.36 220.1 307.54 252.17 297.2 252.17 304.02 220.1"/><polygon class="cls-2" points="340.87 242.9 365.93 242.9 363.97 252.17 328.56 252.17 337.4 210.6 372.8 210.6 370.83 219.86 345.76 219.86 344.35 226.51 367.04 226.51 365.15 235.42 342.46 235.42 340.87 242.9"/><polygon class="cls-2" points="379.68 210.6 418.3 210.6 409.46 252.17 399.12 252.17 405.94 220.1 388 220.1 381.18 252.17 370.85 252.17 379.68 210.6"/><polygon class="cls-2" points="440.03 210.6 451.19 210.6 459.35 252.17 448.54 252.17 443 223.42 442.76 223.42 425.01 252.17 414.2 252.17 440.03 210.6"/><path class="cls-2" d="M495.93,252.17l-1.42-7.84H476.69l-4.76,7.84H460.76l25.47-41.57H499.3l7.8,41.57Zm-3.08-17.11L490.46,222h-.24l-7.94,13.06Z"/><path class="cls-2" d="M13.82,296.06l.71-3.35H2.58l-.71,3.35H0L1.08,291h1A1.15,1.15,0,0,0,3.29,290l4-12.93H17.89l-3,13.87h1.83l-1.08,5.09ZM13,291l2.57-12.13h-7l-3.42,11A6.85,6.85,0,0,1,4.78,291Z"/><path class="cls-2" d="M19.7,292.71,23,277.1h1.92l-1.14,5.35h5c3.34,0,5.24,2.19,4.61,5.13a6.8,6.8,0,0,1-6.79,5.13ZM22,291h5a4.49,4.49,0,0,0,4.51-3.39c.42-2-.89-3.39-3.07-3.39h-5Zm15.18,1.74H35.26l3.32-15.61h1.91Z"/><polygon class="cls-2" points="59.83 292.71 57.91 292.71 60.63 279.91 60.54 279.91 51.8 292.71 50.02 292.71 46.72 279.91 46.63 279.91 43.91 292.71 42 292.71 45.32 277.1 48.08 277.1 51.43 290.08 51.52 290.08 60.38 277.1 63.14 277.1 59.83 292.71"/><path class="cls-2" d="M65.42,284.91a10.16,10.16,0,0,1,9.65-8.08c4.45,0,7.21,3.39,6.21,8.08A10.16,10.16,0,0,1,71.63,293c-4.45,0-7.21-3.39-6.21-8.07m14,0c.78-3.71-1.33-6.34-4.67-6.34a7.86,7.86,0,0,0-7.37,6.34c-.78,3.7,1.33,6.33,4.67,6.33a7.86,7.86,0,0,0,7.37-6.33"/><polygon class="cls-2" points="89.38 284.82 84.86 277.1 87.27 277.1 90.9 283.3 97.17 277.1 99.57 277.1 91.78 284.82 96.39 292.71 93.98 292.71 90.26 286.33 83.82 292.71 81.41 292.71 89.38 284.82"/><path class="cls-2" d="M99.84,284.91a10.16,10.16,0,0,1,9.65-8.08c4.45,0,7.21,3.39,6.22,8.08a10.17,10.17,0,0,1-9.65,8.07c-4.46,0-7.22-3.39-6.22-8.07m14,0c.79-3.71-1.33-6.34-4.67-6.34a7.86,7.86,0,0,0-7.37,6.34c-.78,3.7,1.33,6.33,4.67,6.33a7.86,7.86,0,0,0,7.37-6.33"/><path class="cls-2" d="M129.25,296.06l.71-3.35H118l-.71,3.35h-1.88l1.09-5.09h1a1.15,1.15,0,0,0,1.18-.94l4-12.93h10.66l-3,13.87h1.82l-1.08,5.09Zm-.79-5.09L131,278.84h-7l-3.41,11a8.51,8.51,0,0,1-.41,1.11Z"/><path class="cls-2" d="M135.14,292.71l3.32-15.61h1.92l-1.14,5.35h5c3.35,0,5.24,2.19,4.62,5.13a6.81,6.81,0,0,1-6.8,5.13Zm2.29-1.74h5a4.47,4.47,0,0,0,4.51-3.39c.43-2-.88-3.39-3.07-3.39h-5Zm15.18,1.74h-1.92L154,277.1h1.92Z"/><polygon class="cls-2" points="177.58 292.71 175.67 292.71 178.49 279.42 166.44 292.71 164.12 292.71 167.44 277.1 169.36 277.1 166.53 290.39 178.58 277.1 180.9 277.1 177.58 292.71"/><path class="cls-2" d="M182.37,288h2c0,2,1.14,3.21,4.53,3.21,2.94,0,5.12-1,5.53-2.94.33-1.57-.71-2.77-3.16-2.77h-3.43l.37-1.74h3.34c2,0,3.57-.85,3.92-2.5.4-1.87-1.2-2.72-4.06-2.72-3.23,0-5,1.21-5.71,3.21h-2c.81-3,3.88-4.95,8.09-4.95,3.84,0,6.21,1.61,5.63,4.37-.34,1.56-1.36,2.41-2.83,3.21v.09a3.16,3.16,0,0,1,1.77,3.84c-.59,2.77-3.22,4.64-7.81,4.64-4.86,0-6.34-2.05-6.17-5"/><polygon class="cls-2" points="209.04 277.1 210.96 277.1 209.55 283.7 218.69 283.7 220.09 277.1 222.01 277.1 218.69 292.71 216.78 292.71 218.32 285.44 209.18 285.44 207.64 292.71 205.72 292.71 209.04 277.1"/><polygon class="cls-2" points="225.8 290.97 235.82 290.97 235.46 292.71 223.51 292.71 226.83 277.1 238.77 277.1 238.4 278.84 228.38 278.84 227.34 283.7 236.26 283.7 235.89 285.44 226.97 285.44 225.8 290.97"/><path class="cls-2" d="M242.82,286.82l-1.25,5.89h-1.92L243,277.1h8.47c2.9,0,4.7,1.78,4.05,4.86a6.06,6.06,0,0,1-6.12,4.86Zm6.92-1.74a3.75,3.75,0,0,0,3.83-3.12c.38-1.78-.41-3.12-2.5-3.12h-6.55l-1.33,6.24Z"/><polygon class="cls-2" points="267.54 285.44 265.87 285.44 257.82 292.71 255.26 292.71 264.24 284.64 258.71 277.1 261.18 277.1 266.02 283.7 267.91 283.7 269.32 277.1 271.23 277.1 269.83 283.7 271.72 283.7 279.37 277.1 281.84 277.1 273.11 284.64 278.66 292.71 276.1 292.71 271.13 285.44 269.46 285.44 267.92 292.71 266 292.71 267.54 285.44"/><path class="cls-2" d="M293.55,292.71l-.89-3.88h-8.07l-2.54,3.88h-2l10.23-15.61h1.6l3.59,15.61Zm-1.26-5.57-1.69-7.36h-.09l-4.82,7.36Z"/><path class="cls-2" d="M301.74,277.1h7.93c2.9,0,4.61,1.61,4.09,4A5,5,0,0,1,311,284.5l0,.09a3.37,3.37,0,0,1,1.71,3.93,5.56,5.56,0,0,1-5.75,4.19h-8.47ZM307,291a3.52,3.52,0,0,0,3.74-2.67c.33-1.57-.59-2.68-2.69-2.68h-6.24L300.71,291Zm1.2-7.09a3.38,3.38,0,0,0,3.57-2.52c.32-1.52-.63-2.52-2.5-2.52h-6l-1.07,5Z"/><polygon class="cls-2" points="317.65 290.97 327.68 290.97 327.31 292.71 315.36 292.71 318.68 277.1 330.62 277.1 330.25 278.84 320.23 278.84 319.19 283.7 328.11 283.7 327.74 285.44 318.82 285.44 317.65 290.97"/><path class="cls-2" d="M333.42,292.71H331.5l3.32-15.61h1.92l-1.41,6.6h3.19a9.91,9.91,0,0,1,9.17-6.87c4.46,0,7.06,3.39,6.06,8.08a10,10,0,0,1-9.49,8.07c-4.28,0-6.84-3.15-6.16-7.54H335Zm18.41-7.8c.79-3.71-1.17-6.34-4.51-6.34a7.7,7.7,0,0,0-7.21,6.34c-.78,3.7,1.18,6.33,4.52,6.33a7.68,7.68,0,0,0,7.2-6.33"/><polygon class="cls-2" points="380.27 296.06 378.4 296.06 379.11 292.71 356.02 292.71 359.34 277.1 361.26 277.1 358.31 290.97 367 290.97 369.95 277.1 371.87 277.1 368.92 290.97 377.61 290.97 380.56 277.1 382.47 277.1 379.52 290.97 381.35 290.97 380.27 296.06"/><polygon class="cls-2" points="386.58 290.97 396.61 290.97 396.24 292.71 384.29 292.71 387.61 277.1 399.56 277.1 399.18 278.84 389.16 278.84 388.12 283.7 397.04 283.7 396.67 285.44 387.75 285.44 386.58 290.97"/><path class="cls-2" d="M413.89,292.71H412l2.83-13.29-12.05,13.29h-2.32l3.32-15.61h1.92l-2.83,13.29,12.05-13.29h2.32Zm-5.8-20.29h1.51a1.35,1.35,0,0,0,1.47,1.69,2.23,2.23,0,0,0,2.19-1.69h1.51a4,4,0,0,1-4,3.12c-1.61,0-3-.85-2.68-3.12"/><path class="cls-2" d="M426.17,284.91a10,10,0,0,1,9.56-8.08c3.79,0,6,2.32,6.23,5.71h-2a4.29,4.29,0,0,0-4.59-4,7.68,7.68,0,0,0-7.27,6.34c-.79,3.7,1.14,6.33,4.58,6.33a7.23,7.23,0,0,0,6.28-4h2A9.69,9.69,0,0,1,432.3,293c-4.55,0-7.13-3.39-6.13-8.07"/><polygon class="cls-2" points="450.73 278.84 444.36 278.84 444.73 277.1 459.39 277.1 459.02 278.84 452.65 278.84 449.7 292.71 447.78 292.71 450.73 278.84"/><path class="cls-2" d="M468.91,292.71l-.89-3.88H460l-2.55,3.88h-2l10.23-15.61h1.61l3.58,15.61Zm-1.26-5.57L466,279.78h-.09l-4.82,7.36Z"/><path class="cls-2" d="M486.39,292.71h-1.92l2.95-13.87h-7.17l-3.33,11.46a3,3,0,0,1-3.33,2.46H472l.41-1.92H474a1.13,1.13,0,0,0,1.18-.94l3.75-12.8h10.83Z"/><polygon class="cls-2" points="504.67 292.71 502.75 292.71 505.58 279.42 493.53 292.71 491.21 292.71 494.53 277.1 496.45 277.1 493.62 290.39 505.67 277.1 507.99 277.1 504.67 292.71"/></g></g></svg>